<svg xmlns:dc="http://purl.org/dc/elements/1.1/" xmlns:cc="http://creativecommons.org/ns#" xmlns:rdf="http://www.w3.org/1999/02/22-rdf-syntax-ns#" xmlns:svg="http://www.w3.org/2000/svg" xmlns="http://www.w3.org/2000/svg" viewBox="0 0 256 256" fill="none"><metadata><rdf:RDF><cc:Work><dc:format>image/svg+xml</dc:format><dc:type rdf:resource="http://purl.org/dc/dcmitype/StillImage"/><dc:title>Croodles - Doodle your face</dc:title><dc:creator><cc:Agent><dc:title>vijay verma</dc:title></cc:Agent></dc:creator><dc:source>https://www.figma.com/community/file/966199982810283152</dc:source><cc:license rdf:resource="https://creativecommons.org/licenses/by/4.0/"/></cc:Work><cc:License rdf:about="https://creativecommons.org/licenses/by/4.0/"><cc:permits rdf:resource="https://creativecommons.org/ns#Reproduction"/><cc:permits rdf:resource="https://creativecommons.org/ns#Distribution"/><cc:permits rdf:resource="https://creativecommons.org/ns#DerivativeWorks"/><cc:requires rdf:resource="https://creativecommons.org/ns#Notice"/><cc:requires rdf:resource="https://creativecommons.org/ns#Attribution"/></cc:License></rdf:RDF></metadata><mask id="avatarsRadiusMask"><rect width="256" height="256" rx="0" ry="0" x="0" y="0" fill="#fff"/></mask><g mask="url(#avatarsRadiusMask)"><g><path d="M73.886 102.022c1.232-5.713 2.807-10.664 4.761-14.337.032-.158.09-.313.177-.46 2.902-4.883 8.823-9.335 16.233-12.866 7.455-3.552 16.603-6.26 26.198-7.542 19.113-2.553 40.443.509 53.606 14.442.314.332.442.773.388 1.193 2.089 3.98 4.248 9.844 6.223 16.882 1.343-.518 3.018-.888 4.666-.779 1.926.127 3.949.932 5.161 3.039 2.083 3.624 2.188 9.14.67 15.44-.537 2.23-1.649 3.724-3.025 4.635a6.809 6.809 0 0 1-2.454.995c1.238 7.833 2.129 16.109 2.48 24.335.561 13.173-.262 26.293-3.314 37.281-3.048 10.971-8.382 20.029-17.011 24.722-18.324 9.965-38.663 12.216-55.895 7.93-17.234-4.286-31.46-15.15-37.277-31.47-3.787-10.625-5.537-30.289-5.1-49.542.064-2.825.176-5.647.335-8.437l-.05.009c-.822.117-1.697.06-2.558-.293-.863-.353-1.62-.967-2.262-1.822-1.25-1.665-2.122-4.327-2.602-8.223-.69-5.608.155-10.034 2.235-12.768 1.057-1.39 2.435-2.337 4.04-2.711 1.41-.327 2.898-.192 4.375.347Z" fill="rgba(255, 255, 255, 0)"/><g stroke="#000" stroke-width="3" stroke-linecap="round" stroke-linejoin="round"><path d="M78.904 87.314c-10.418 19.382-10.78 77.782-3.213 98.999 11.51 32.276 56.411 43.348 93.316 23.288 33.33-18.117 18.061-104.955 6.13-127.601"/><path d="M182.901 100.238c2.589-1.154 6.883-1.752 8.728 1.455 1.844 3.208 2.054 8.382.528 14.71-.941 3.902-3.738 4.766-5.705 4.766M72.656 103.001c-5.88-2.578-10.794 2.577-9.425 13.692.962 7.806 3.407 9.64 5.901 9.284"/></g><g transform="translate(115 126)"><path d="M15.276 18c-3.978.854-7.159 6.761-3.977 9.944 3.977 3.977 12.33 4.773 13.125 0 .637-3.819-1.281-5.857-2.74-6.652" stroke="#000" stroke-width="3" stroke-linecap="round" stroke-linejoin="round"/></g><g transform="translate(61 138)"/><g transform="translate(98 188)"><path d="M12 5.602c2.425 3.907 6.607 15.1 22.733 15.1S57.026 6.547 57.713 5" stroke="#000" stroke-width="3" stroke-linecap="round" stroke-linejoin="round"/></g><g transform="translate(-2 -23)"><g stroke="rgba(151, 71, 255, 1)" stroke-width="3" stroke-linecap="round" stroke-linejoin="round"><path d="M84.5 109.83c-19 22.5 5.5 100.5-7 132-4.29 10.81-20.5 19-33.5 16.5M145 68.33c9-8.5 24.1-7.2 34.5 0 13 9 26 24 31.5 106.5s25 82.5 33.5 81"/><path d="M144.5 79.83c-1.5 4-2 9.359-22 12-29 3.83-50.5-3-59 31s-.364 87.5-8 108.5-22.5 21.5-31 16.5"/><path d="M148.5 79.33c0 10-7 16-21.5 17-20.669 1.426-32.5-6.5-51 17.5-13.379 17.357 2.5 75.5-8 109.5-5.005 16.206-21 19-25 16.5M142 75.33c-3.5 3.5-4.5 6.2-24.5 9-25 3.5-41 4-50.5 17"/><path d="M142.5 71.33c-2.167 2.667-6.8 4.8-22 6-19 1.5-40 4.5-51 17"/><path d="M143 64.33c-5.333-3-24-6.5-45 2-24.63 9.97-47.343 26-54.5 71.5-7 44.5-7.562 61.5-10 81-.812 6.5-5.5 9-10 9"/><path d="M140 67.83c-17-2-29 0-46.5 9-15.512 7.978-32.5 20.5-38 62.001-5.5 41.5-3.5 65-7.5 80-3.262 12.231-12 13.5-17 13.5"/><path d="M21 241.83c4.667 1.5 15.62.244 18.5-18 4.5-28.5 5.618-53.694 7-76.5 1-16.5 3-41.5 35-62.5M148 70.83c14-4.5 33.4-5.1 41 24.5 9.5 37 12.5 138 22 150 7.6 9.6 18.5 8.334 23 6.5"/><path d="M146 75.33c11-3 30.5-4.5 37 21 6.249 24.515-.5 103.5 2.5 125.5s18.5 37.5 37 30"/><path d="M152 81.33c13.333-4 39.4 3.6 41 68 2 80.5 1.5 101 31 108"/><path d="M152 85.33c18.5 1.5 28.4 18.7 30 41.5 2 28.5-18.5 95.5 0 122 14.8 21.2 30.833 22.5 37 20.5"/></g></g><g transform="translate(71 156)"/><g transform="translate(70 84)"><g stroke="#000" stroke-width="3" stroke-linecap="round" stroke-linejoin="round"><path d="M26.833 19.11c1.286 1.158 4.672 2.392 8.595 1.737 3.428-.573 4.91-2.075 5.901-3.945M70.075 16.14c1.998 2.588 5.331 3.394 7.518 3.516 2.186.122 5.021-.772 7.184-1.931M4 20.484l13.684 8.495M48.232 32.81c5.142-3.299 17.622-3.305 20.454-1.837M96.88 28.655c2.544-1.323 10.581-7.782 13.124-9.613"/><path d="M22.564 45.956c-8.29-3.093-7.59-11.34-3.649-17.136 3.046-3.805 22.755-2.179 27.158 1.787 4.207 3.789 2.358 11.778-1.798 14.272-3.372 2.023-16.17 3.145-21.711 1.077ZM94.396 26.673c-3.606-1.126-18.195-1.052-23.903 2.613-3.86 2.478-6.58 14.713 3.514 16.066 4.614.619 14.882-.084 18.703-1.882 8.2-3.859 6.743-15.217 1.686-16.797Z"/><path d="M29.674 35.308c1.02-1.947 3.19-2.642 4.127-2.642 3.105 0 3.987 1.339 4.687 2.172M77.929 35.308c1.02-1.947 3.19-2.642 4.127-2.642 3.105 0 3.987 1.339 4.687 2.172"/></g></g></g></g></svg>